<?xml version="1.0" standalone="no"?>
<!DOCTYPE svg PUBLIC "-//W3C//DTD SVG 20010904//EN"
 "http://www.w3.org/TR/2001/REC-SVG-20010904/DTD/svg10.dtd">
<svg version="1.0" xmlns="http://www.w3.org/2000/svg"
 width="1280.000000pt" height="1110.000000pt" viewBox="0 0 1280.000000 1110.000000"
 preserveAspectRatio="xMidYMid meet">
<metadata>
Created by potrace 1.15, written by Peter Selinger 2001-2017
</metadata>
<g transform="translate(0.000000,1110.000000) scale(0.100000,-0.100000)"
fill="#000000" stroke="none">
<path d="M10312 10888 c-133 -332 -253 -682 -328 -955 -12 -47 -21 -63 -34
-63 -10 0 -49 -16 -88 -35 -87 -44 -177 -137 -306 -316 -189 -262 -318 -428
-410 -529 -53 -58 -172 -193 -266 -300 -163 -188 -178 -203 -407 -385 -131
-105 -272 -222 -315 -260 -115 -106 -288 -197 -583 -305 -546 -200 -1410 -400
-2010 -464 -71 -8 -240 -28 -375 -45 -135 -17 -495 -58 -800 -91 -1217 -132
-1753 -216 -1959 -306 -60 -27 -162 -31 -346 -14 -177 16 -185 20 -427 219
l-102 84 -99 -7 c-149 -10 -188 -33 -203 -122 -10 -63 15 -100 149 -221 113
-102 157 -158 157 -197 0 -18 9 -66 20 -107 29 -108 37 -217 17 -255 -8 -16
-55 -74 -103 -128 -73 -82 -98 -119 -147 -220 -88 -181 -89 -187 -94 -524 -6
-323 -1 -388 50 -652 29 -149 32 -183 32 -355 0 -136 -5 -220 -18 -296 -27
-163 -84 -403 -110 -468 -58 -144 -228 -341 -409 -472 -55 -41 -146 -115 -202
-164 -55 -50 -153 -135 -216 -190 -184 -159 -300 -268 -319 -300 -33 -57 -52
-130 -58 -225 -7 -117 5 -210 63 -500 51 -255 54 -284 75 -995 l12 -410 28
-61 c34 -73 117 -155 191 -189 106 -48 176 -58 410 -59 204 -1 218 0 245 20
40 30 54 64 60 152 5 65 10 82 34 111 33 41 31 45 -46 97 -110 72 -264 235
-330 348 -68 116 -93 272 -76 473 16 186 87 594 116 664 60 149 216 324 432
486 67 50 260 184 430 297 169 113 353 241 408 285 66 53 137 98 210 134 208
101 339 192 499 347 162 156 284 312 524 672 l112 168 78 39 c42 21 122 55
176 76 l100 37 64 -22 c36 -11 112 -41 170 -67 138 -60 168 -64 212 -27 31 26
110 173 110 204 0 20 785 7 875 -14 216 -50 411 -139 789 -360 423 -246 662
-347 986 -416 97 -21 122 -22 340 -18 l235 6 50 -25 c27 -14 51 -26 52 -27 1
-1 28 -153 59 -337 l57 -334 0 -250 c0 -137 -8 -389 -18 -560 -22 -376 -25
-870 -7 -1005 24 -176 62 -291 117 -350 21 -23 24 -36 27 -145 3 -116 4 -123
47 -220 110 -254 205 -355 364 -386 32 -6 123 -8 237 -4 185 7 185 7 215 35
18 16 60 37 102 50 l72 21 -104 210 c-58 115 -105 219 -105 232 0 20 -28 42
-154 126 -149 99 -155 104 -179 159 -49 110 -76 411 -58 643 28 361 87 619
301 1299 54 173 108 349 120 390 12 41 34 98 48 125 14 28 96 243 183 479
l159 429 78 81 c256 266 359 468 414 811 14 86 33 164 58 230 105 278 154 509
210 1010 45 402 66 529 121 714 64 216 123 329 321 605 124 174 134 185 251
278 184 147 290 192 480 205 113 7 166 -4 294 -59 122 -54 186 -57 277 -15 54
25 68 27 190 27 204 0 471 57 621 133 119 59 265 196 265 247 0 13 18 47 40
76 56 72 76 155 50 205 -14 26 -62 49 -102 49 -22 0 -189 69 -473 194 l-438
195 -149 238 c-81 131 -165 255 -185 277 -48 49 -120 83 -203 95 -36 5 -110
26 -165 46 -139 51 -239 73 -366 81 -87 5 -110 10 -113 23 -56 185 -66 243
-66 389 0 238 -16 416 -45 517 -25 87 -71 185 -85 185 -4 0 -44 -91 -88 -202z"/>
</g>
</svg>
